<svg width="1500" height="559" viewBox="0 0 1500 559" fill="none" xmlns="http://www.w3.org/2000/svg">
<g clip-path="url(#clip0_894_37)">
<path d="M62.05 358.279C96.3193 358.279 124.1 330.498 124.1 296.229C124.1 261.959 96.3193 234.179 62.05 234.179C27.7807 234.179 0 261.959 0 296.229C0 330.498 27.7807 358.279 62.05 358.279Z" fill="#EC3D3D"/>
<path d="M170.98 54.1C185.919 54.1 198.03 41.9893 198.03 27.05C198.03 12.1107 185.919 0 170.98 0C156.04 0 143.93 12.1107 143.93 27.05C143.93 41.9893 156.04 54.1 170.98 54.1Z" fill="white"/>
<path d="M336.42 274.849L202.85 64.7393C200.89 66.6693 187.22 79.6293 166.87 77.7493C149.96 76.1893 139.74 65.4293 137.4 62.8193C128.88 77.1093 121.69 88.4693 116.77 96.0993C104.98 114.399 98.6203 123.069 93.8803 137.979C91.3703 145.869 90.2203 152.639 89.6403 157.159C89.4803 161.049 88.5203 198.959 119.01 222.569C140.32 239.079 163.94 238.489 170.58 238.099C175.73 237.549 186.58 237.099 198.58 242.399C207.44 246.309 213.34 251.759 216.62 255.319C219.88 259.169 224.35 265.369 227.61 273.939C231.22 283.439 231.81 291.839 231.77 297.109C231.62 300.429 230.91 326.549 251.83 344.479C267.81 358.179 286.21 358.349 290.99 358.249C297.74 357.609 314.01 355.079 327.23 342.189C331.34 338.179 334.29 334.009 336.42 330.329C338.84 325.119 342.58 315.269 342.54 302.389C342.5 289.719 338.82 280.019 336.42 274.829V274.849ZM170.98 194.699C150.48 194.699 133.87 178.079 133.87 157.589C133.87 137.099 150.49 120.479 170.98 120.479C191.47 120.479 208.09 137.099 208.09 157.589C208.09 178.079 191.47 194.699 170.98 194.699Z" fill="white"/>
<path d="M684.64 129.649C624.05 129.649 574.93 178.769 574.93 239.359C574.93 299.949 624.05 349.069 684.64 349.069C745.23 349.069 794.35 299.949 794.35 239.359C794.35 178.769 745.23 129.649 684.64 129.649ZM684.64 300.019C651.14 300.019 623.98 272.859 623.98 239.359C623.98 205.859 651.14 178.699 684.64 178.699C718.14 178.699 745.3 205.859 745.3 239.359C745.3 272.859 718.14 300.019 684.64 300.019Z" fill="white"/>
<path d="M534.099 161.539C504.139 131.149 466.639 129.759 458.209 129.649C451.499 129.689 410.839 130.619 380.029 165.069C350.559 198.009 351.769 237.379 352.119 244.649C352.859 253.139 357.099 291.639 389.469 320.859C416.829 345.549 447.579 348.529 457.189 349.059C466.329 349.339 481.719 348.589 499.049 341.489C520.239 332.799 533.419 319.079 539.679 311.599C522.989 303.879 506.299 296.159 489.609 288.439C484.979 291.559 474.679 297.529 460.469 298.119C450.919 298.519 443.239 296.329 438.509 294.539C434.349 293.399 423.269 289.729 414.909 278.749C410.209 272.569 408.109 266.359 407.109 262.329H564.299C565.189 257.119 573.71 201.719 534.09 161.529L534.099 161.539ZM407.119 216.019C408.479 211.509 412.949 198.749 425.589 189.069C440.309 177.789 456.069 178.389 460.269 178.689C465.079 178.419 477.829 178.349 490.849 186.539C506.609 196.459 512.059 211.739 513.419 216.009H407.119V216.019Z" fill="white"/>
<path d="M804.449 123.48C804.559 115.86 811.219 110.56 817.259 111.5C822.269 112.28 826.519 117.33 826.409 123.48V318.41H943.669C950.759 319.43 955.569 325.81 954.789 332.16C954.129 337.53 949.559 342.05 943.669 342.8H811.279C810.299 342.43 808.269 341.49 806.619 339.37C804.149 336.17 804.379 332.6 804.459 331.72V123.48H804.449Z" fill="white"/>
<path d="M1037.58 179.941C992.81 179.941 956.521 216.231 956.521 261.001C956.521 305.771 992.81 342.061 1037.58 342.061C1082.35 342.061 1118.64 305.771 1118.64 261.001C1118.64 216.231 1082.35 179.941 1037.58 179.941ZM1037.58 319.281C1005.39 319.281 979.3 293.191 979.3 261.001C979.3 228.811 1005.39 202.721 1037.58 202.721C1069.77 202.721 1095.86 228.811 1095.86 261.001C1095.86 293.191 1069.77 319.281 1037.58 319.281Z" fill="white"/>
<path d="M1292.14 261.009C1292.14 216.239 1255.85 179.949 1211.08 179.949C1166.31 179.949 1130.02 216.239 1130.02 261.009C1130.02 305.779 1166.31 342.069 1211.08 342.069C1233.98 342.069 1254.62 332.539 1269.36 317.269V345.469C1269.36 348.099 1268.78 350.659 1267.6 353.009C1264.18 359.829 1256.88 371.319 1243.03 379.269C1231.21 386.049 1219.97 387.199 1214.09 387.369C1207.5 387.139 1192.91 385.739 1177.78 376.229C1163.47 367.239 1155.99 355.599 1152.8 349.849C1147.81 345.009 1140.14 345.209 1136.04 349.479C1132.75 352.899 1132.11 358.559 1134.72 363.249C1137.81 369.609 1143.24 378.779 1152.46 387.579C1165.05 399.609 1178.42 404.929 1185.97 407.299C1193.32 408.999 1202.58 410.449 1213.3 410.479C1220.4 410.499 1226.79 409.909 1232.3 409.059C1239.94 407.179 1251.57 403.219 1263.1 394.269C1281.45 380.029 1289.02 361.379 1292.09 350.879C1293.05 347.609 1293.46 344.229 1293.41 340.819L1292.14 261.019V261.009ZM1211.09 319.279C1178.9 319.279 1152.81 293.189 1152.81 260.999C1152.81 228.809 1178.9 202.719 1211.09 202.719C1243.28 202.719 1269.37 228.809 1269.37 260.999C1269.37 293.189 1243.28 319.279 1211.09 319.279Z" fill="white"/>
<path d="M1338.42 179.199H1317.77C1316.67 179.199 1315.78 180.09 1315.78 181.189V340.809C1315.78 341.908 1316.67 342.799 1317.77 342.799H1338.42C1339.52 342.799 1340.41 341.908 1340.41 340.809V181.189C1340.41 180.09 1339.52 179.199 1338.42 179.199Z" fill="white"/>
<path d="M1328.09 167.1C1347.66 167.1 1363.52 151.238 1363.52 131.67C1363.52 112.103 1347.66 96.2402 1328.09 96.2402C1308.52 96.2402 1292.66 112.103 1292.66 131.67C1292.66 151.238 1308.52 167.1 1328.09 167.1Z" fill="white"/>
<path d="M1481.75 221.51C1487.73 225.42 1495.4 223.6 1498.52 218.5C1500.99 214.46 1500.37 208.75 1496.75 204.7C1492.08 199.7 1476.53 184.31 1451.68 181.26C1413.49 176.57 1387.6 205.22 1385.26 207.9C1380.86 212.91 1375.27 220.41 1370.84 230.54C1364.8 244.35 1363.64 256.81 1363.53 264.5C1363.8 270.5 1365.67 297.59 1388.03 319.29C1407.98 338.65 1431.49 341.35 1438.17 341.88C1444.23 342.79 1456.91 343.85 1471.43 338.44C1483.98 333.77 1492.16 326.4 1496.3 322.08C1500.26 318.24 1500.75 312.11 1497.65 307.91C1494.27 303.35 1487.5 302.24 1482.6 305.76C1478.88 308.99 1471.83 314.27 1461.54 317.37C1451.19 320.48 1442.35 319.94 1437.47 319.28C1433.59 318.85 1415.3 316.4 1401.79 300.17C1389.61 285.55 1389.27 269.28 1389.32 264.92C1389.06 261.6 1387.76 240.12 1404.37 222.79C1421.12 205.3 1442.89 205.83 1446.18 205.97C1450.48 205.87 1458.78 206.27 1467.8 210.76C1474.59 214.15 1479.13 218.53 1481.75 221.5V221.51Z" fill="white"/>
<path d="M83.5399 476.77H95.1799L76.2799 512.35V531.55H66.1199V512.35L47.3599 476.77H59.0699L71.1499 501.68L83.5299 476.77H83.5399Z" fill="white"/>
<path d="M126.17 511.389C126.17 505.459 128.17 500.459 132.17 496.409C136.27 492.309 141.44 490.259 147.67 490.259C153.9 490.259 159.08 492.309 163.09 496.409C167.14 500.459 169.17 505.459 169.17 511.389C169.17 517.319 167.14 522.459 163.09 526.509C159.08 530.559 153.94 532.589 147.67 532.589C141.4 532.589 136.23 530.559 132.17 526.509C128.17 522.459 126.17 517.419 126.17 511.389ZM159.45 511.389C159.45 507.979 158.31 505.109 156.04 502.789C153.72 500.419 150.92 499.229 147.66 499.229C144.4 499.229 141.61 500.419 139.28 502.789C137.01 505.109 135.87 507.979 135.87 511.389C135.87 514.799 137.01 517.739 139.28 520.059C141.6 522.439 144.39 523.619 147.66 523.619C150.93 523.619 153.71 522.439 156.04 520.059C158.31 517.739 159.45 514.849 159.45 511.389Z" fill="white"/>
<path d="M228.62 532.509C222.99 532.509 218.55 530.939 215.31 527.799C212.07 524.659 210.45 520.299 210.45 514.719V491.289H220.16V514.719C220.16 517.429 220.91 519.609 222.42 521.239C223.93 522.869 225.99 523.679 228.61 523.679C231.23 523.679 233.37 522.869 234.88 521.239C236.39 519.609 237.14 517.439 237.14 514.719V491.289H246.85V514.719C246.85 520.299 245.23 524.659 241.99 527.799C238.75 530.939 234.29 532.509 228.61 532.509H228.62Z" fill="white"/>
<path d="M300 531.549H290.36V491.299H299.63V496.859C302.1 492.459 305.83 490.269 310.82 490.269C312.5 490.269 314.1 490.539 315.64 491.079L314.83 500.349C313.1 499.809 311.54 499.539 310.16 499.539C307.05 499.539 304.57 500.589 302.75 502.689C300.93 504.789 300.01 507.869 300.01 511.919V531.559L300 531.549Z" fill="white"/>
<path d="M415.279 531.549V486.549H399.489V476.759H441.299V486.549H425.509V531.549H415.279Z" fill="white"/>
<path d="M514.019 510.57C514.019 511.86 513.919 513.29 513.719 514.87H483.029C483.669 517.74 485.039 519.99 487.139 521.65C489.239 523.3 491.969 524.13 495.329 524.13C500.219 524.13 504.639 522.75 508.599 519.98L512.449 526.88C507.459 530.58 501.619 532.44 494.949 532.44C491.289 532.44 488.039 531.85 485.199 530.67C482.359 529.48 480.069 527.89 478.339 525.89C476.609 523.89 475.309 521.67 474.449 519.22C473.589 516.78 473.149 514.17 473.149 511.4C473.149 505.27 475.079 500.25 478.929 496.35C482.829 492.35 487.869 490.35 494.049 490.35C499.829 490.35 504.599 492.18 508.359 495.83C512.119 499.44 513.989 504.35 513.989 510.58L514.019 510.57ZM494.079 498.41C491.259 498.41 488.879 499.22 486.929 500.86C484.979 502.49 483.679 504.71 483.039 507.53H504.539C504.139 504.71 502.999 502.49 501.089 500.86C499.189 499.23 496.849 498.41 494.089 498.41H494.079Z" fill="white"/>
<path d="M574.88 532.429C568.7 532.429 563.59 530.459 559.53 526.499C555.58 522.549 553.6 517.509 553.6 511.379C553.6 505.249 555.6 500.209 559.61 496.259C563.66 492.309 568.85 490.329 575.18 490.329C579.33 490.329 583.07 491.309 586.41 493.259C589.75 495.209 592.23 497.919 593.86 501.379L586 505.599C583.43 501.349 579.87 499.219 575.33 499.219C571.87 499.219 568.98 500.379 566.66 502.709C564.34 505.039 563.25 507.869 563.25 511.389C563.25 514.909 564.36 517.739 566.59 520.059C568.81 522.389 571.63 523.549 575.04 523.549C577.26 523.549 579.37 522.969 581.38 521.809C583.38 520.649 584.88 519.129 585.87 517.249L593.73 521.839C591.95 525.099 589.39 527.689 586.06 529.589C582.72 531.499 579 532.439 574.91 532.439L574.88 532.429Z" fill="white"/>
<path d="M644.27 531.551H634.63V475.211H644.04V496.491C645.23 494.611 646.96 493.111 649.23 491.971C651.5 490.841 654.02 490.271 656.79 490.271C661.09 490.271 664.77 491.721 667.84 494.641C670.9 497.551 672.44 501.681 672.44 507.021V531.551H662.8V509.611C662.8 506.301 662.01 503.721 660.43 501.861C658.85 500.001 656.7 499.081 653.98 499.081C651.11 499.081 648.78 500.071 646.98 502.041C645.18 504.021 644.27 506.591 644.27 509.751V531.541V531.551Z" fill="white"/>
<path d="M725.66 531.549H716.021V491.299H725.51V496.929C726.6 494.849 728.25 493.219 730.47 492.029C732.7 490.849 735.26 490.259 738.18 490.259C742.58 490.259 746.31 491.709 749.37 494.629C752.43 497.539 753.97 501.669 753.97 507.009V531.539H744.26V509.669C744.26 506.359 743.471 503.759 741.891 501.889C740.311 500.009 738.16 499.069 735.44 499.069C732.57 499.069 730.221 500.069 728.401 502.069C726.571 504.069 725.66 506.649 725.66 509.819V531.529V531.549Z" fill="white"/>
<path d="M795.27 511.389C795.27 505.459 797.27 500.459 801.27 496.409C805.37 492.309 810.54 490.259 816.77 490.259C823 490.259 828.18 492.309 832.19 496.409C836.24 500.459 838.27 505.459 838.27 511.389C838.27 517.319 836.24 522.459 832.19 526.509C828.18 530.559 823.04 532.589 816.77 532.589C810.5 532.589 805.33 530.559 801.27 526.509C797.27 522.459 795.27 517.419 795.27 511.389ZM828.55 511.389C828.55 507.979 827.41 505.109 825.14 502.789C822.82 500.419 820.02 499.229 816.76 499.229C813.5 499.229 810.71 500.419 808.38 502.789C806.11 505.109 804.97 507.979 804.97 511.389C804.97 514.799 806.11 517.739 808.38 520.059C810.7 522.439 813.49 523.619 816.76 523.619C820.03 523.619 822.81 522.439 825.14 520.059C827.41 517.739 828.55 514.849 828.55 511.389Z" fill="white"/>
<path d="M889.709 475.211V531.551H880.069V475.211H889.709Z" fill="white"/>
<path d="M931.6 511.389C931.6 505.459 933.6 500.459 937.6 496.409C941.7 492.309 946.87 490.259 953.1 490.259C959.33 490.259 964.51 492.309 968.52 496.409C972.57 500.459 974.6 505.459 974.6 511.389C974.6 517.319 972.57 522.459 968.52 526.509C964.51 530.559 959.37 532.589 953.1 532.589C946.83 532.589 941.66 530.559 937.6 526.509C933.6 522.459 931.6 517.419 931.6 511.389ZM964.88 511.389C964.88 507.979 963.74 505.109 961.47 502.789C959.15 500.419 956.35 499.229 953.09 499.229C949.83 499.229 947.04 500.419 944.71 502.789C942.44 505.109 941.3 507.979 941.3 511.389C941.3 514.799 942.44 517.739 944.71 520.059C947.03 522.439 949.82 523.619 953.09 523.619C956.36 523.619 959.14 522.439 961.47 520.059C963.74 517.739 964.88 514.849 964.88 511.389Z" fill="white"/>
<path d="M1047.46 496.109V491.299H1056.51V527.539C1056.51 533.959 1054.46 539.079 1050.36 542.889C1046.26 546.699 1040.92 548.599 1034.35 548.599C1027.78 548.599 1021.43 546.679 1016.04 542.819L1019.97 535.479C1024.46 538.639 1029.19 540.229 1034.13 540.229C1038.18 540.229 1041.37 539.159 1043.69 536.999C1046.01 534.849 1047.17 532.019 1047.17 528.509V526.139C1043.91 529.799 1039.63 531.619 1034.34 531.619C1028.46 531.619 1023.64 529.669 1019.89 525.769C1016.13 521.859 1014.26 516.949 1014.26 511.019C1014.26 505.089 1016.21 500.049 1020.12 496.199C1024.02 492.299 1028.89 490.339 1034.72 490.339C1039.86 490.339 1044.11 492.259 1047.47 496.119L1047.46 496.109ZM1035.74 523.169C1039.1 523.169 1041.89 522.039 1044.12 519.759C1046.35 517.439 1047.46 514.549 1047.46 511.089C1047.46 507.629 1046.35 504.789 1044.12 502.559C1041.9 500.289 1039.1 499.149 1035.74 499.149C1032.38 499.149 1029.51 500.289 1027.29 502.559C1025.06 504.789 1023.95 507.629 1023.95 511.089C1023.95 514.549 1025.06 517.439 1027.29 519.759C1029.51 522.029 1032.33 523.169 1035.74 523.169Z" fill="white"/>
<path d="M1118.4 518.499L1127.96 491.299H1138.49L1122.18 534.139C1120.2 539.129 1117.92 542.799 1115.32 545.149C1112.72 547.499 1109.55 548.669 1105.79 548.669C1102.73 548.669 1100.25 548.019 1098.38 546.739L1099.94 538.579C1101.82 539.469 1103.52 539.919 1105.06 539.919C1108.32 539.919 1110.94 537.739 1112.92 533.389L1113.89 531.169L1096.32 491.289H1107.51L1118.41 518.489L1118.4 518.499Z" fill="white"/>
<path d="M1181.44 446.379V558.979H1499.96V446.379H1181.44ZM1267.03 531.549L1262.51 519.099H1243.09L1238.57 531.549H1227.82L1249.02 476.769H1256.81L1277.79 531.549H1267.04H1267.03ZM1342.64 500.339C1340.91 499.799 1339.35 499.529 1337.97 499.529C1334.86 499.529 1332.38 500.579 1330.56 502.679C1328.74 504.779 1327.82 507.859 1327.82 511.909V531.549H1318.18V491.299H1327.45V496.859C1329.92 492.459 1333.65 490.269 1338.64 490.269C1340.32 490.269 1341.92 490.539 1343.46 491.079L1342.65 500.349L1342.64 500.339ZM1448.13 531.549H1438.42V509.089C1438.42 505.869 1437.67 503.409 1436.16 501.679C1434.65 499.949 1432.61 499.089 1430.05 499.089C1427.33 499.089 1425.11 500.029 1423.38 501.909C1421.65 503.789 1420.79 506.279 1420.79 509.399V531.559H1411.15V509.179C1411.15 506.069 1410.37 503.609 1408.82 501.799C1407.26 499.999 1405.2 499.099 1402.63 499.099C1399.91 499.099 1397.68 500.049 1395.92 501.949C1394.17 503.849 1393.29 506.359 1393.29 509.469V531.559H1383.65V491.309H1393.14V497.089C1394.27 494.969 1395.94 493.279 1398.14 492.049C1400.34 490.819 1402.75 490.199 1405.37 490.199C1408.09 490.249 1410.51 490.889 1412.63 492.129C1414.75 493.369 1416.34 495.119 1417.37 497.389C1418.8 495.119 1420.81 493.349 1423.38 492.089C1425.95 490.829 1428.76 490.199 1431.83 490.199C1436.57 490.199 1440.48 491.729 1443.54 494.799C1446.6 497.869 1448.14 502.039 1448.14 507.329V531.569L1448.13 531.549Z" fill="white"/>
<path d="M1246.05 509.981H1259.61L1252.87 491.221L1246.05 509.981Z" fill="white"/>
</g>
<defs>
<clipPath id="clip0_894_37">
<rect width="1500" height="558.99" fill="white"/>
</clipPath>
</defs>
</svg>
