<?xml version="1.0" encoding="UTF-8"?>
<svg id="Layer_2" data-name="Layer 2" xmlns="http://www.w3.org/2000/svg" viewBox="0 0 1500 558.99">
  <defs>
    <style>
      .cls-1 {
        fill: #ec3d3d;
      }
    </style>
  </defs>
  <g id="Layer_1-2" data-name="Layer 1">
    <g>
      <g>
        <circle class="cls-1" cx="62.05" cy="296.23" r="62.05"/>
        <circle cx="170.98" cy="27.05" r="27.05"/>
        <path d="M336.42,274.85L202.85,64.74c-1.96,1.93-15.63,14.89-35.98,13.01-16.91-1.56-27.13-12.32-29.47-14.93-8.52,14.29-15.71,25.65-20.63,33.28-11.79,18.3-18.15,26.97-22.89,41.88-2.51,7.89-3.66,14.66-4.24,19.18-.16,3.89-1.12,41.8,29.37,65.41,21.31,16.51,44.93,15.92,51.57,15.53,5.15-.55,16-1,28,4.3,8.86,3.91,14.76,9.36,18.04,12.92,3.26,3.85,7.73,10.05,10.99,18.62,3.61,9.5,4.2,17.9,4.16,23.17-.15,3.32-.86,29.44,20.06,47.37,15.98,13.7,34.38,13.87,39.16,13.77,6.75-.64,23.02-3.17,36.24-16.06,4.11-4.01,7.06-8.18,9.19-11.86,2.42-5.21,6.16-15.06,6.12-27.94-.04-12.67-3.72-22.37-6.12-27.56ZM170.98,194.7c-20.5,0-37.11-16.62-37.11-37.11s16.62-37.11,37.11-37.11,37.11,16.62,37.11,37.11-16.62,37.11-37.11,37.11Z"/>
        <path class="cls-1" d="M684.64,129.65c-60.59,0-109.71,49.12-109.71,109.71s49.12,109.71,109.71,109.71,109.71-49.12,109.71-109.71-49.12-109.71-109.71-109.71ZM684.64,300.02c-33.5,0-60.66-27.16-60.66-60.66s27.16-60.66,60.66-60.66,60.66,27.16,60.66,60.66-27.16,60.66-60.66,60.66Z"/>
        <path class="cls-1" d="M534.1,161.54c-29.96-30.39-67.46-31.78-75.89-31.89-6.71.04-47.37.97-78.18,35.42-29.47,32.94-28.26,72.31-27.91,79.58.74,8.49,4.98,46.99,37.35,76.21,27.36,24.69,58.11,27.67,67.72,28.2,9.14.28,24.53-.47,41.86-7.57,21.19-8.69,34.37-22.41,40.63-29.89-16.69-7.72-33.38-15.44-50.07-23.16-4.63,3.12-14.93,9.09-29.14,9.68-9.55.4-17.23-1.79-21.96-3.58-4.16-1.14-15.24-4.81-23.6-15.79-4.7-6.18-6.8-12.39-7.8-16.42h157.19c.89-5.21,9.41-60.61-30.21-100.8ZM407.12,216.02c1.36-4.51,5.83-17.27,18.47-26.95,14.72-11.28,30.48-10.68,34.68-10.38,4.81-.27,17.56-.34,30.58,7.85,15.76,9.92,21.21,25.2,22.57,29.47h-106.3Z"/>
        <path d="M804.45,123.48c.11-7.62,6.77-12.92,12.81-11.98,5.01.78,9.26,5.83,9.15,11.98v194.93h117.26c7.09,1.02,11.9,7.4,11.12,13.75-.66,5.37-5.23,9.89-11.12,10.64h-132.39c-.98-.37-3.01-1.31-4.66-3.43-2.47-3.2-2.24-6.77-2.16-7.65V123.48Z"/>
        <path d="M1037.58,179.94c-44.77,0-81.06,36.29-81.06,81.06s36.29,81.06,81.06,81.06,81.06-36.29,81.06-81.06-36.29-81.06-81.06-81.06ZM1037.58,319.28c-32.19,0-58.28-26.09-58.28-58.28s26.09-58.28,58.28-58.28,58.28,26.09,58.28,58.28-26.09,58.28-58.28,58.28Z"/>
        <path d="M1292.14,261.01s0,0,0,0c0-44.77-36.29-81.06-81.06-81.06s-81.06,36.29-81.06,81.06,36.29,81.06,81.06,81.06c22.9,0,43.54-9.53,58.28-24.8v28.2c0,2.63-.58,5.19-1.76,7.54-3.42,6.82-10.72,18.31-24.57,26.26-11.82,6.78-23.06,7.93-28.94,8.1-6.59-.23-21.18-1.63-36.31-11.14-14.31-8.99-21.79-20.63-24.98-26.38-4.99-4.84-12.66-4.64-16.76-.37-3.29,3.42-3.93,9.08-1.32,13.77,3.09,6.36,8.52,15.53,17.74,24.33,12.59,12.03,25.96,17.35,33.51,19.72,7.35,1.7,16.61,3.15,27.33,3.18,7.1.02,13.49-.57,19-1.42,7.64-1.88,19.27-5.84,30.8-14.79,18.35-14.24,25.92-32.89,28.99-43.39.96-3.27,1.37-6.65,1.32-10.06l-1.27-79.8ZM1211.09,319.28c-32.19,0-58.28-26.09-58.28-58.28s26.09-58.28,58.28-58.28,58.28,26.09,58.28,58.28-26.09,58.28-58.28,58.28Z"/>
        <rect x="1315.78" y="179.2" width="24.63" height="163.6" rx="1.99" ry="1.99"/>
        <circle class="cls-1" cx="1328.09" cy="131.67" r="35.43"/>
        <path d="M1481.75,221.51c5.98,3.91,13.65,2.09,16.77-3.01,2.47-4.04,1.85-9.75-1.77-13.8-4.67-5-20.22-20.39-45.07-23.44-38.19-4.69-64.08,23.96-66.42,26.64-4.4,5.01-9.99,12.51-14.42,22.64-6.04,13.81-7.2,26.27-7.31,33.96.27,6,2.14,33.09,24.5,54.79,19.95,19.36,43.46,22.06,50.14,22.59,6.06.91,18.74,1.97,33.26-3.44,12.55-4.67,20.73-12.04,24.87-16.36,3.96-3.84,4.45-9.97,1.35-14.17-3.38-4.56-10.15-5.67-15.05-2.15-3.72,3.23-10.77,8.51-21.06,11.61-10.35,3.11-19.19,2.57-24.07,1.91-3.88-.43-22.17-2.88-35.68-19.11-12.18-14.62-12.52-30.89-12.47-35.25-.26-3.32-1.56-24.8,15.05-42.13,16.75-17.49,38.52-16.96,41.81-16.82,4.3-.1,12.6.3,21.62,4.79,6.79,3.39,11.33,7.77,13.95,10.74Z"/>
      </g>
      <g>
        <path d="M83.54,476.77h11.64l-18.9,35.58v19.2h-10.16v-19.2l-18.76-35.58h11.71l12.08,24.91,12.38-24.91Z"/>
        <path d="M126.17,511.39c0-5.93,2-10.93,6-14.98,4.1-4.1,9.27-6.15,15.5-6.15s11.41,2.05,15.42,6.15c4.05,4.05,6.08,9.05,6.08,14.98s-2.03,11.07-6.08,15.12c-4.01,4.05-9.15,6.08-15.42,6.08s-11.44-2.03-15.5-6.08c-4-4.05-6-9.09-6-15.12ZM159.45,511.39c0-3.41-1.14-6.28-3.41-8.6-2.32-2.37-5.12-3.56-8.38-3.56s-6.05,1.19-8.38,3.56c-2.27,2.32-3.41,5.19-3.41,8.6s1.14,6.35,3.41,8.67c2.32,2.38,5.11,3.56,8.38,3.56s6.05-1.18,8.38-3.56c2.27-2.32,3.41-5.21,3.41-8.67Z"/>
        <path d="M228.62,532.51c-5.63,0-10.07-1.57-13.31-4.71-3.24-3.14-4.86-7.5-4.86-13.08v-23.43h9.71v23.43c0,2.71.75,4.89,2.26,6.52s3.57,2.44,6.19,2.44,4.76-.81,6.27-2.44c1.51-1.63,2.26-3.8,2.26-6.52v-23.43h9.71v23.43c0,5.58-1.62,9.94-4.86,13.08-3.24,3.14-7.7,4.71-13.38,4.71Z"/>
        <path d="M300,531.55h-9.64v-40.25h9.27v5.56c2.47-4.4,6.2-6.59,11.19-6.59,1.68,0,3.28.27,4.82.81l-.81,9.27c-1.73-.54-3.29-.81-4.67-.81-3.11,0-5.59,1.05-7.41,3.15s-2.74,5.18-2.74,9.23v19.64Z"/>
        <path d="M415.28,531.55v-45h-15.79v-9.79h41.81v9.79h-15.79v45h-10.23Z"/>
        <path d="M514.02,510.57c0,1.29-.1,2.72-.3,4.3h-30.69c.64,2.87,2.01,5.12,4.11,6.78,2.1,1.65,4.83,2.48,8.19,2.48,4.89,0,9.31-1.38,13.27-4.15l3.85,6.9c-4.99,3.7-10.83,5.56-17.5,5.56-3.66,0-6.91-.59-9.75-1.77-2.84-1.19-5.13-2.78-6.86-4.78-1.73-2-3.03-4.22-3.89-6.67-.86-2.44-1.3-5.05-1.3-7.82,0-6.13,1.93-11.15,5.78-15.05,3.9-4,8.94-6,15.12-6,5.78,0,10.55,1.83,14.31,5.48,3.76,3.61,5.63,8.52,5.63,14.75ZM494.08,498.41c-2.82,0-5.2.81-7.15,2.45-1.95,1.63-3.25,3.85-3.89,6.67h21.5c-.4-2.82-1.54-5.04-3.45-6.67-1.9-1.63-4.24-2.45-7-2.45Z"/>
        <path d="M574.88,532.43c-6.18,0-11.29-1.97-15.35-5.93-3.95-3.95-5.93-8.99-5.93-15.12s2-11.17,6.01-15.12c4.05-3.95,9.24-5.93,15.57-5.93,4.15,0,7.89.98,11.23,2.93,3.34,1.95,5.82,4.66,7.45,8.12l-7.86,4.22c-2.57-4.25-6.13-6.38-10.67-6.38-3.46,0-6.35,1.16-8.67,3.49s-3.41,5.16-3.41,8.68,1.11,6.35,3.34,8.67c2.22,2.33,5.04,3.49,8.45,3.49,2.22,0,4.33-.58,6.34-1.74,2-1.16,3.5-2.68,4.49-4.56l7.86,4.59c-1.78,3.26-4.34,5.85-7.67,7.75-3.34,1.91-7.06,2.85-11.15,2.85Z"/>
        <path d="M644.27,531.55h-9.64v-56.34h9.41v21.28c1.19-1.88,2.92-3.38,5.19-4.52,2.27-1.13,4.79-1.7,7.56-1.7,4.3,0,7.98,1.45,11.05,4.37,3.06,2.91,4.6,7.04,4.6,12.38v24.53h-9.64v-21.94c0-3.31-.79-5.89-2.37-7.75-1.58-1.86-3.73-2.78-6.45-2.78-2.87,0-5.2.99-7,2.96-1.8,1.98-2.71,4.55-2.71,7.71v21.79Z"/>
        <path d="M725.66,531.55h-9.64v-40.25h9.49v5.63c1.09-2.08,2.74-3.71,4.96-4.9,2.23-1.18,4.79-1.77,7.71-1.77,4.4,0,8.13,1.45,11.19,4.37,3.06,2.91,4.6,7.04,4.6,12.38v24.53h-9.71v-21.87c0-3.31-.79-5.91-2.37-7.78-1.58-1.88-3.73-2.82-6.45-2.82-2.87,0-5.22,1-7.04,3-1.83,2-2.74,4.58-2.74,7.75v21.71Z"/>
        <path d="M795.27,511.39c0-5.93,2-10.93,6-14.98,4.1-4.1,9.27-6.15,15.5-6.15s11.41,2.05,15.42,6.15c4.05,4.05,6.08,9.05,6.08,14.98s-2.03,11.07-6.08,15.12c-4.01,4.05-9.15,6.08-15.42,6.08s-11.44-2.03-15.5-6.08c-4-4.05-6-9.09-6-15.12ZM828.55,511.39c0-3.41-1.14-6.28-3.41-8.6-2.32-2.37-5.12-3.56-8.38-3.56s-6.05,1.19-8.38,3.56c-2.27,2.32-3.41,5.19-3.41,8.6s1.14,6.35,3.41,8.67c2.32,2.38,5.11,3.56,8.38,3.56s6.05-1.18,8.38-3.56c2.27-2.32,3.41-5.21,3.41-8.67Z"/>
        <path d="M889.71,475.21v56.34h-9.64v-56.34h9.64Z"/>
        <path d="M931.6,511.39c0-5.93,2-10.93,6-14.98,4.1-4.1,9.27-6.15,15.5-6.15s11.41,2.05,15.42,6.15c4.05,4.05,6.08,9.05,6.08,14.98s-2.03,11.07-6.08,15.12c-4.01,4.05-9.15,6.08-15.42,6.08s-11.44-2.03-15.5-6.08c-4-4.05-6-9.09-6-15.12ZM964.88,511.39c0-3.41-1.14-6.28-3.41-8.6-2.32-2.37-5.12-3.56-8.38-3.56s-6.05,1.19-8.38,3.56c-2.27,2.32-3.41,5.19-3.41,8.6s1.14,6.35,3.41,8.67c2.32,2.38,5.11,3.56,8.38,3.56s6.05-1.18,8.38-3.56c2.27-2.32,3.41-5.21,3.41-8.67Z"/>
        <path d="M1047.46,496.11v-4.81h9.05v36.24c0,6.42-2.05,11.54-6.15,15.35-4.1,3.81-9.44,5.71-16.01,5.71s-12.92-1.92-18.31-5.78l3.93-7.34c4.49,3.16,9.22,4.75,14.16,4.75,4.05,0,7.24-1.07,9.56-3.23,2.32-2.15,3.48-4.98,3.48-8.49v-2.37c-3.26,3.66-7.54,5.48-12.83,5.48-5.88,0-10.7-1.95-14.45-5.85-3.76-3.91-5.63-8.82-5.63-14.75s1.95-10.97,5.86-14.82c3.9-3.9,8.77-5.86,14.6-5.86,5.14,0,9.39,1.92,12.75,5.78ZM1035.74,523.17c3.36,0,6.15-1.13,8.38-3.41,2.23-2.32,3.34-5.21,3.34-8.67s-1.11-6.3-3.34-8.53c-2.22-2.27-5.02-3.41-8.38-3.41s-6.23,1.14-8.45,3.41c-2.23,2.23-3.34,5.07-3.34,8.53s1.11,6.35,3.34,8.67c2.22,2.27,5.04,3.41,8.45,3.41Z"/>
        <path d="M1118.4,518.5l9.56-27.2h10.53l-16.31,42.84c-1.98,4.99-4.26,8.66-6.86,11.01s-5.77,3.52-9.53,3.52c-3.06,0-5.54-.65-7.41-1.93l1.56-8.16c1.88.89,3.58,1.34,5.12,1.34,3.26,0,5.88-2.18,7.86-6.53l.97-2.22-17.57-39.88h11.19l10.9,27.2Z"/>
      </g>
      <g>
        <path class="cls-1" d="M1181.44,446.38v112.6h318.52v-112.6h-318.52ZM1267.03,531.55l-4.52-12.45h-19.42l-4.52,12.45h-10.75l21.2-54.78h7.79l20.98,54.78h-10.75ZM1342.64,500.34c-1.73-.54-3.29-.81-4.67-.81-3.11,0-5.59,1.05-7.41,3.15s-2.74,5.18-2.74,9.23v19.64h-9.64v-40.25h9.27v5.56c2.47-4.4,6.2-6.59,11.19-6.59,1.68,0,3.28.27,4.82.81l-.81,9.27ZM1448.13,531.55h-9.71v-22.46c0-3.22-.75-5.68-2.26-7.41s-3.55-2.59-6.11-2.59c-2.72,0-4.94.94-6.67,2.82-1.73,1.88-2.59,4.37-2.59,7.49v22.16h-9.64v-22.38c0-3.11-.78-5.57-2.33-7.38-1.56-1.8-3.62-2.7-6.19-2.7-2.72,0-4.95.95-6.71,2.85-1.75,1.9-2.63,4.41-2.63,7.52v22.09h-9.64v-40.25h9.49v5.78c1.13-2.12,2.8-3.81,5-5.04,2.2-1.23,4.61-1.85,7.23-1.85,2.72.05,5.14.69,7.26,1.93s3.71,2.99,4.74,5.26c1.43-2.27,3.44-4.04,6.01-5.3,2.57-1.26,5.38-1.89,8.45-1.89,4.74,0,8.65,1.53,11.71,4.6s4.6,7.24,4.6,12.53v24.24Z"/>
        <polygon class="cls-1" points="1246.05 509.98 1259.61 509.98 1252.87 491.22 1246.05 509.98"/>
      </g>
    </g>
  </g>
</svg>